/* XPM */
static char *f816e87603cc4ea6e11a10abc1888d5b6cwsvzpcYlS3ovGx[] = {
/* columns rows colors chars-per-pixel */
"64 64 3 1 ",
"  c None",
". c black",
"X c white",
/* pixels */
"                                                                ",
"                                                                ",
"                                                                ",
"                                                                ",
"                                                                ",
"                                                                ",
"                                                                ",
"                                                                ",
"                                                                ",
"                                                                ",
"                                                                ",
"                                                                ",
"                                                                ",
"                                                                ",
"                                                                ",
"                                                                ",
"                                                                ",
"                                                                ",
"                        XXXXXXXXXXXXXXXXXX                      ",
"                  XX XXXXXXXXXXXXXXXXXXXXXXXXXX                 ",
"                XXXXXXXXXX...............XXXXXXXX               ",
"               XXXXXXXX.......................XXXXX             ",
"              XXXX........XXXX...XXXX..X.......XXXXX            ",
"             XXX..........XXXX..XXXX...XXXX......XXXX           ",
"             XXX....XXX..XX.X...XXXX..X.XXX...XX..XXXX          ",
"            XXX....XXX...X.....XXXXX..X.XXX..XXX...XXX          ",
"           XXX....XXX...X..X..XX..X....XXX...XXXX...XX          ",
"          XXXX....XX...XXXX...X..X...X.XXX..XXXXX...XXX         ",
"          XXX....XXX..XXXX...XX.X...XX.XX...X.XX....XXX         ",
"         XXX ...XXX...XXXX..XXXXX..XXXXXX..X.XX...X..XX         ",
"         XXX...XXXX..XXXXX..X.XX...XXXXX....XXX..XX..XX         ",
"         XX...XXXX...XXXX.....XX..XXXXX...XXXX...XX..XX         ",
"         XX...XX....XX.X...XXXX...X..XX..XXXXX..XXX..XX         ",
"        XXX...X.X...X.XX..XXXXX..XX.XX...XXXX...X...XXX         ",
"        XXX..XX....XXXX...XXXX...X.XX...XXXXX..XX...XXX         ",
"        XX...XX....XXX.....XXX..XXXXX...XXXX...XXX..XX          ",
"        XX...XX...XXXX...X.XX...XXXX...XXXX...XX....XX          ",
"        XXX..X....XXX...X.XX...XXXX....XXXX...X...XXXX          ",
"        XXX......XXXX....XX....X.X...XXX.X...X....XXX           ",
"         XXX.....XXX...XXX....X.....XXXX........XXXX            ",
"          XXX..........XX....XX.X...XX..X.....XXXXX             ",
"          XXXX..............XXXX...XX..X.....XXXXX              ",
"           XXXXX............................XXXX                ",
"             XXXXXXX...................... XXXX                 ",
"              XXXXXXXXX...............XXXXXXXX                  ",
"                  XXXXXXXXXXXXXXXXXXXXXXXXXX                    ",
"                      XXXXXXXXXXXXXXXXXX                        ",
"                                                                ",
"                                                                ",
"                                                                ",
"                                                                ",
"                                                                ",
"                                                                ",
"                                                                ",
"                                                                ",
"                                                                ",
"                                                                ",
"                                                                ",
"                                                                ",
"                                                                ",
"                                                                ",
"                                                                ",
"                                                                ",
"                                                                "
};
