/* XPM */
static char *cfcf319c8af64abdc88083603af6b93cslzAgnwnfp7QjE3K[] = {
/* columns rows colors chars-per-pixel */
"64 64 3 1 ",
"  c None",
". c black",
"X c white",
/* pixels */
"                                                                ",
"                                                                ",
"                                                                ",
"                                                                ",
"                                                                ",
"                                                                ",
"                                                                ",
"                                                                ",
"                                                                ",
"                                                                ",
"                                                                ",
"                                                                ",
"                                                                ",
"                                                                ",
"                                                                ",
"                       XXX             XXX                      ",
"                     XXXXXXX          XXXXX                     ",
"                     XXXXXXX         XXXXXX                     ",
"                     XX XXXXXXXXXXXXXXXXXXX                     ",
"                  XX XXXXXXXXXXXXXXXXXXXXXXXXXX                 ",
"                XXXXXXXXXX...........XX..XXXXXXXX               ",
"               XXXXXXXX..............XX.......XXXXX             ",
"              XXXX...XXXXXXXXXXXXXXXXXX........XXXXX            ",
"             XXX.....XXXXXXXXXXXXXXXXXX..........XXXX           ",
"             XXX.....XX..............XX...........XXXX          ",
"            XXX......XX..............XX............XXX          ",
"           XXX.......XXXXXXXXXXXXXXXXXX.............XX          ",
"          XXXX.......XXXXXXXXXXXXXXXXXX.............XXX         ",
"          XXX........XX..............XX.............XXX         ",
"         XXX ........XX..............XX..............XX         ",
"         XXX.........XXXXXXXXXXXXXXXXXX..............XX         ",
"         XX..........XXXXXXXXXXXXXXXXXX..............XX         ",
"         XX..........XX..............XX..............XX         ",
"        XXX..........XX..............XX.............XXX         ",
"        XXX..........XXXXXXXXXXXXXXXXXX.............XXX         ",
"        XX...........XXXXXXXXXX.....XXX.............XX          ",
"        XX...........XX..............XX.............XX          ",
"        XXX..........X................X...........XXXX          ",
"        XXX.......................................XXX           ",
"         XXX....................................XXXX            ",
"          XXX.................................XXXXX             ",
"          XXXX...............................XXXXX              ",
"           XXXXX............................XXXX                ",
"             XXXXXXX...................... XXXX                 ",
"              XXXXXXXXX...............XXXXXXXX                  ",
"                  XXXXXXXXXXXXXXXXXXXXXXXXXX                    ",
"                      XXXXXXXXXXXXXXXXXX                        ",
"                                                                ",
"                                                                ",
"                                                                ",
"                                                                ",
"                                                                ",
"                                                                ",
"                                                                ",
"                                                                ",
"                                                                ",
"                                                                ",
"                                                                ",
"                                                                ",
"                                                                ",
"                                                                ",
"                                                                ",
"                                                                ",
"                                                                "
};
