/* XPM */
static char *f7657c9ddc294174b0241b71fd38e466V9SfkgtsDx2Gzpsi[] = {
/* columns rows colors chars-per-pixel */
"64 64 3 1 ",
"  c None",
". c black",
"X c white",
/* pixels */
"                                                                ",
"                                                                ",
"                                                                ",
"                                                                ",
"                                                                ",
"                                                                ",
"                                                                ",
"                                                                ",
"                                                                ",
"                                                                ",
"                                                                ",
"                                                                ",
"                     XXXXXXXXXXXXXXX                            ",
"                  XXXXXXXXXXXXXXXXXXXXX                         ",
"                XXXXXX.............XXXXXX                       ",
"               XXXXX..................XXXXX                     ",
"              XXXX......................XXXXX                   ",
"             XXX.........................XXXX                   ",
"            XXX............................XXX                  ",
"            .............................XXXXXX                 ",
"          ..XX..........................XXXXXXX                 ",
"         .X............................XXXXX.XXX                ",
"        ...XXXX........................XXX...XXX                ",
"          XXXX.........................XX.....XXX               ",
"          XXX..........................XX.....XXXXXX            ",
"         XXXX..........................XXX....XXXXXXXX          ",
"        XXXX...........................XXX....XXX.XXXXXX        ",
"        XXXX............................XXX..XXXX....XXXX       ",
"        XXX.............................XXXXXXX......XXXX       ",
"        XXX..........................................XXXX       ",
"        XXXX.......................................XXXXXX       ",
"        XXXXXX............................XXXXXXXXXXXX          ",
"        XXXXXXXXXXXXXXXXX...............XXXXX.XXX               ",
"          XXXXXXXXXXX.XXXXXXXXXXXXXXXXXXXXXXX..XXX              ",
"          XXX......XX..XXXXXXXXXXXXXXXXXX.......XXX             ",
"         XXX......XX..XX...................XXX...XX             ",
"         XX.......XX..XX..................XXXXXX.XXX            ",
"         XX.......XX.XXX..................XXXXXX..XX            ",
"         XX......XXX.XX........XXXXXX....XXX......XXX           ",
"        XXX......XXX.XX.......XXXXXXX....XX.XX....XXX           ",
"        XX.......XX..XX.......XX...XXX...XX.XX.....XX           ",
"        XX.......XX..XX.......XX.XX.XX.............XX           ",
"        XX.......XX..XX.......XX.XX................XX           ",
"        XX.......XX..XX............................XX           ",
"        XX.......XX..XX.......................XX...XX           ",
"        XX.......XX..XX.....................XXX....XX           ",
"        XX.......XX..XX....................X......XXX           ",
"        XXX......XX..XX.................XXXX.....XXX            ",
"        XXX......XX..XX..............XXXX.X......XXX            ",
"         XXX.....XXX.XX.................XXX.....XXX             ",
"          XXXX....XXX.XX......................XXXXX             ",
"          XXXXX...XXX.XXX....................XXXX               ",
"            XXXXXX.XX.XXX...............XXXXXXXX                ",
"              XXXXXXXXXXXXXXXXXXXXXXXXXXXXXXXX                  ",
"                 XXXXXXXXXXXXXXXXXXXXXXXXXXX                    ",
"                                      XXX                       ",
"                                                                ",
"                                                                ",
"                                                                ",
"                                                                ",
"                                                                ",
"                                                                ",
"                                                                ",
"                                                                "
};
