/* XPM */
static char *_f79b9d8be4449a6e5a983061d9f177cmvnqJaLCWt7js9oX[] = {
/* columns rows colors chars-per-pixel */
"64 64 3 1 ",
"  c None",
". c black",
"X c white",
/* pixels */
"                                                                ",
"                                                                ",
"                                                                ",
"                                                                ",
"                                                                ",
"                                                                ",
"                                                                ",
"                                                                ",
"                         XX          XXXX                       ",
"                        XXX          XXXXX                      ",
"                        XXX          XXXXX                      ",
"                XXXX   XXXXX         XX.XX                      ",
"                XXXX   XXXXX         XX.XXX                     ",
"               XXXXX   XX.XX         XX.XXX                     ",
"               XXXXXX XXX.XX    XX   XX..XX                     ",
"               XX.XXX XXX.XX   XXX   XX..XX                     ",
"               XX..XX XX..XX   XXXX  XX..XX                     ",
"              XXX..XX XX..XX   XXXX  XX..XX                     ",
"              XX...XXXXX..XX  XXXXXX XX..XXX                    ",
"              XX...XXXXX..XX  XX.XXX XX..XXXX                   ",
"              XX..XXXXX...XX  XX..XX XX...XXX                   ",
"              XX..XX XX...XX XXX..XXXXX....XXXXXX               ",
"              XX..XX XX...XX XXX..XXXX.....XXXXXX               ",
"              XX..XX XX...XX XX...XXXX.....XXXXXXX              ",
"              XX..XXXXX...XX XX...XXXX.....XXXXXXX              ",
"              XX..XXXXX...XXXXX...XXXX.....XXX..XX              ",
"             XXX..XXXX.....XXXX....XXX.....XXX..XX              ",
"             XXX..XXXX.....XXXX....XXX.....XXX..XX              ",
"             XX....XXX.....XXXX....XXX..........XX              ",
"             XX....XX......XXX.....XXX..........XX              ",
"             XX............XXX..................XX              ",
"             XX............XXX..................XX              ",
"             XX.................................XXX             ",
"            XXX..................................XX             ",
"            XXX..................................XXX            ",
"            XX...................................XXX            ",
"            XX....................................XX            ",
"            XX....................................XX            ",
"           XXX....................................XXX           ",
"         XXXXX....................................XXXX          ",
"        XXXXX........ .............................XXX          ",
"       XXXXXXXX....XXXXX....................XXXXXXXXXX          ",
"       XXXXXXXXXXXXXXXXXX.................XXXXXXXXXXX           ",
"       XXX   XXXXXXXX XXXXXXXX..........XXXXXX                  ",
"                       XXXXXXXXXXXXXXXXXXXXX                    ",
"                            XXXXXXXXXXXXXX                      ",
"                                                                ",
"                                                                ",
"                                                                ",
"                                                                ",
"                                                                ",
"                                                                ",
"                                                                ",
"                                                                ",
"                                                                ",
"                                                                ",
"                                                                ",
"                                                                ",
"                                                                ",
"                                                                ",
"                                                                ",
"                                                                ",
"                                                                ",
"                                                                "
};
