/* XPM */
static char *_9ecc9c0dbdf4491856ed576ee8c62b1X6VMZjz8L4CZMqYQ[] = {
/* columns rows colors chars-per-pixel */
"64 64 3 1 ",
"  c None",
". c black",
"X c white",
/* pixels */
"                                                                ",
"                           XX                                   ",
"              XX           XXX                                  ",
"              XX            XXX                                 ",
"              XXX            XX                                 ",
"               XX            XX                                 ",
"               XXX           XX                 XXX             ",
"               XXX           XX                 XXX             ",
"                         XX          XXXX       XX              ",
"                        XXX          XXXXX      XX              ",
"                        XXX          XXXXX     XXX              ",
"                XXXX   XXXXX         XX.XX     XX               ",
"                XXXX   XXXXX         XX.XXX   XXX               ",
"    XXX        XXXXX   XX.XX         XX.XXX   XX                ",
"    XXXXX      XXXXXX XXX.XX    XX   XX..XX   XX                ",
"      XXXX     XX.XXX XXX.XX   XXX   XX..XX                     ",
"        XXXXX  XX..XX XX..XX   XXXX  XX..XX              XX     ",
"         XXXX XXX..XX XX..XX   XXXX  XX..XX              XX     ",
"              XX...XXXXX..XX  XXXXXX XX..XXX            XXX     ",
"              XX...XXXXX..XX  XX.XXX XX..XXXX         XXXX      ",
"              XX..XXXXX...XX  XX..XX XX...XXX        XXXX       ",
"              XX..XX XX...XX XXX..XXXXX....XXXXXX  XXXX         ",
"              XX..XX XX...XX XXX..XXXX.....XXXXXX  XXX          ",
"              XX..XX XX...XX XX...XXXX.....XXXXXXX              ",
"              XX..XXXXX...XX XX...XXXX.....XXXXXXX              ",
"              XX..XXXXX...XXXXX...XXXX.....XXX..XX              ",
"    XX       XXX..XXXX.....XXXX....XXX.....XXX..XX              ",
"    XXXXXXX  XXX..XXXX.....XXXX....XXX.....XXX..XX              ",
"     XXXXXX  XX....XXX.....XXXX....XXX..........XX              ",
"             XX....XX......XXX.....XXXX.........XX              ",
"             XX....XX......XXX...XX..XXX........XX              ",
"             XX....XX......XXX...XX..XXX........XX              ",
"             XX....XXX....XX....XXX...XXXX......XXX             ",
"            XXX.....XX....XX...XXX.....XXX.......XX     XXXXX   ",
"  XXXXXX    XXX.....XXX...XX...XX.......XXX......XXX    XXXXX   ",
"  XXXXXX    XX......XXX...XX...XX.......XXX......XXX            ",
"            XX......XXX...XX...XX......XXX........XX            ",
"            XX......XX....XX..XXX......XXX........XX            ",
"           XXX......XX....XX..XXX......XX.........XXX           ",
"         XXXXX......XXX...XXX..XXX.....XXX........XXXX          ",
"        XXXXX.......XXX...XXX...XXX.....XXXX.......XXX          ",
"       XXXXXXXX....XXXXX..XXX...XXX......XXXXXXXXXXXXX          ",
"       XXXXXXXXXXXXXXXXXX.XX...XXXX.......XXXXXXXXXXX           ",
"       XXX   XXXXXXXX XXXXXXXX.XXX......XXXXXX                  ",
"                       XXXXXXXXXXXXXXXXXXXXX                    ",
"                            XXXXXXXXXXXXXX                      ",
"                                                                ",
"                                                                ",
"                                                                ",
"                                                                ",
"                                                                ",
"                                                                ",
"                                                                ",
"                                                                ",
"                                                                ",
"                                                                ",
"                                                                ",
"                                                                ",
"                                                                ",
"                                                                ",
"                                                                ",
"                                                                ",
"                                                                ",
"                                                                "
};
